# xmcd
# 
# Track frame offsets:
#     150
#     14560
#     29485
#     52735
#     61960
#     83380
#     87955
#     99987
#     113037
#     124515
#     135387
#     150612
#     166137
#     183220
#     188300
#     203525
# 
# Disc length: 2888
# 
# Revision: 1
# Processed by: cddbd v1.5.2PL0 Copyright (c) Steve Scherf et al.
# Submitted via: fre:ac v1.0.17
# 
DISCID=af0b4610
DTITLE=Roy Book Binder - Polk City Ramble
DYEAR=1998
DGENRE=Blues
TTITLE0=Trouble in the Streets
TTITLE1=Palm Trees Shakin' In the Night
TTITLE2=She Did You a Favor
TTITLE3=Polk City Ramble
TTITLE4=Ballad of Amazing Grace and Side Show Dan
TTITLE5=Married Man's a Fool
TTITLE6=Baby Let Me Lay it on You
TTITLE7=Electricity
TTITLE8=Police Dog Blues
TTITLE9=New Age Woman Blues
TTITLE10=Blind Lemon
TTITLE11=Anywhere You Go
TTITLE12=I'm Just an Old Chunk of Coal
TTITLE13=Ship Is at the Landing
TTITLE14=Let Us Get Together
TTITLE15=Rag Mama
EXTD=Rounder CD 3153
EXTT0=
EXTT1=
EXTT2=
EXTT3=
EXTT4=
EXTT5=
EXTT6=
EXTT7=
EXTT8=
EXTT9=
EXTT10=
EXTT11=
EXTT12=
EXTT13=
EXTT14=
EXTT15=
PLAYORDER=
